<svg width="36" height="36" viewBox="0 0 36 36" fill="none" xmlns="http://www.w3.org/2000/svg">
<path d="M19.4109 18.0003L26.701 10.7103C26.8648 10.519 26.9504 10.2729 26.9407 10.0212C26.9309 9.76953 26.8266 9.53079 26.6485 9.3527C26.4704 9.1746 26.2317 9.07027 25.98 9.06055C25.7283 9.05083 25.4823 9.13644 25.291 9.30026L18.0009 16.5903L10.711 9.29026C10.5196 9.12643 10.2736 9.04083 10.0219 9.05055C9.77022 9.06027 9.53148 9.1646 9.35339 9.3427C9.17529 9.52079 9.07096 9.75953 9.06124 10.0112C9.05152 10.2629 9.13712 10.509 9.30095 10.7003L16.591 18.0003L9.29095 25.2903C9.18627 25.3799 9.10125 25.4902 9.04122 25.6143C8.9812 25.7384 8.94747 25.8735 8.94215 26.0112C8.93683 26.1489 8.96004 26.2863 9.01031 26.4146C9.06059 26.5429 9.13685 26.6595 9.2343 26.7569C9.33175 26.8544 9.4483 26.9306 9.57663 26.9809C9.70495 27.0312 9.84228 27.0544 9.98 27.0491C10.1177 27.0437 10.2529 27.01 10.3769 26.95C10.501 26.89 10.6113 26.8049 10.701 26.7003L18.0009 19.4103L25.291 26.7003C25.4823 26.8641 25.7283 26.9497 25.98 26.94C26.2317 26.9303 26.4704 26.8259 26.6485 26.6478C26.8266 26.4697 26.9309 26.231 26.9407 25.9793C26.9504 25.7276 26.8648 25.4816 26.701 25.2903L19.4109 18.0003Z" fill="#F54F4F"/>
</svg>
