<svg width="36" height="36" viewBox="0 0 36 36" fill="none" xmlns="http://www.w3.org/2000/svg">
<path d="M19.41 18.0003L26.7 10.7103C26.8638 10.519 26.9494 10.2729 26.9397 10.0212C26.93 9.76953 26.8256 9.53079 26.6475 9.3527C26.4694 9.1746 26.2307 9.07027 25.979 9.06055C25.7274 9.05083 25.4813 9.13644 25.29 9.30026L18 16.5903L10.71 9.29026C10.5187 9.12643 10.2726 9.04083 10.0209 9.05055C9.76924 9.06027 9.53051 9.1646 9.35241 9.3427C9.17432 9.52079 9.06998 9.75953 9.06026 10.0112C9.05054 10.2629 9.13615 10.509 9.29997 10.7003L16.59 18.0003L9.28997 25.2903C9.18529 25.3799 9.10027 25.4902 9.04025 25.6143C8.98022 25.7384 8.94649 25.8735 8.94117 26.0112C8.93586 26.1489 8.95906 26.2863 9.00934 26.4146C9.05961 26.5429 9.13587 26.6595 9.23332 26.7569C9.33078 26.8544 9.44733 26.9306 9.57565 26.9809C9.70398 27.0312 9.84131 27.0544 9.97903 27.0491C10.1167 27.0437 10.2519 27.01 10.3759 26.95C10.5 26.89 10.6103 26.8049 10.7 26.7003L18 19.4103L25.29 26.7003C25.4813 26.8641 25.7274 26.9497 25.979 26.94C26.2307 26.9303 26.4694 26.8259 26.6475 26.6478C26.8256 26.4697 26.93 26.231 26.9397 25.9793C26.9494 25.7276 26.8638 25.4816 26.7 25.2903L19.41 18.0003Z" fill="#323232"/>
</svg>
