<svg width="15" height="22" viewBox="0 0 15 22" fill="none" xmlns="http://www.w3.org/2000/svg">
<path d="M7.5 21.0577L7.03846 20.5385C6.75 20.25 0 12.2885 0 7.5C0 3.34615 3.34615 0 7.5 0C11.6538 0 15 3.34615 15 7.5C15 12.2885 8.25 20.25 7.96154 20.5962L7.5 21.0577ZM7.5 1.15385C3.98077 1.15385 1.15385 3.98077 1.15385 7.5C1.15385 11.1923 6 17.4231 7.5 19.2692C9 17.4231 13.8462 11.1923 13.8462 7.5C13.8462 3.98077 11.0192 1.15385 7.5 1.15385Z" fill="#F54F4F"/>
<path d="M7.49985 10.3845C5.88447 10.3845 4.61523 9.11523 4.61523 7.49985C4.61523 5.88446 5.88447 4.61523 7.49985 4.61523C9.11524 4.61523 10.3845 5.88446 10.3845 7.49985C10.3845 9.11523 9.11524 10.3845 7.49985 10.3845ZM7.49985 5.76908C6.51908 5.76908 5.76908 6.51908 5.76908 7.49985C5.76908 8.48062 6.51908 9.23062 7.49985 9.23062C8.48062 9.23062 9.23062 8.48062 9.23062 7.49985C9.23062 6.51908 8.48062 5.76908 7.49985 5.76908Z" fill="#F54F4F"/>
</svg>
