<svg width="41" height="41" viewBox="0 0 41 41" fill="none" xmlns="http://www.w3.org/2000/svg">
<path d="M27.8672 19.2188H21.7812V13.1328C21.7812 12.9566 21.6371 12.8125 21.4609 12.8125H19.5391C19.3629 12.8125 19.2188 12.9566 19.2188 13.1328V19.2188H13.1328C12.9566 19.2188 12.8125 19.3629 12.8125 19.5391V21.4609C12.8125 21.6371 12.9566 21.7812 13.1328 21.7812H19.2188V27.8672C19.2188 28.0434 19.3629 28.1875 19.5391 28.1875H21.4609C21.6371 28.1875 21.7812 28.0434 21.7812 27.8672V21.7812H27.8672C28.0434 21.7812 28.1875 21.6371 28.1875 21.4609V19.5391C28.1875 19.3629 28.0434 19.2188 27.8672 19.2188Z" fill="white"/>
<path d="M20.5 2.5625C10.5943 2.5625 2.5625 10.5943 2.5625 20.5C2.5625 30.4057 10.5943 38.4375 20.5 38.4375C30.4057 38.4375 38.4375 30.4057 38.4375 20.5C38.4375 10.5943 30.4057 2.5625 20.5 2.5625ZM20.5 35.3945C12.276 35.3945 5.60547 28.724 5.60547 20.5C5.60547 12.276 12.276 5.60547 20.5 5.60547C28.724 5.60547 35.3945 12.276 35.3945 20.5C35.3945 28.724 28.724 35.3945 20.5 35.3945Z" fill="white"/>
</svg>
